<svg width="70" height="70" viewBox="0 0 70 70" fill="none" xmlns="http://www.w3.org/2000/svg">
<path fill-rule="evenodd" clip-rule="evenodd" d="M34.8574 39.56C45.8717 16.9868 51.1779 6.13473 51.0059 5.92995C52.0662 7.53409 53.6589 9.02752 56.6397 8.43979L40.9544 41.7367C40.9544 41.7367 38.9221 41.0111 34.8574 39.56Z" fill="white" stroke="#404040" stroke-width="1.04601" stroke-linecap="round" stroke-linejoin="round"/>
<path fill-rule="evenodd" clip-rule="evenodd" d="M36.9952 39.9887L16.1347 32.6405L13.3945 37.8288C27.6767 43.1636 41.9647 48.5466 56.2469 53.8814L59.1813 48.497L36.9952 39.9887Z" fill="white" stroke="#404040" stroke-width="1.03492" stroke-linecap="round" stroke-linejoin="bevel"/>
<path fill-rule="evenodd" clip-rule="evenodd" d="M14.5439 38.5163C10.7195 41.3213 13.3254 45.596 7.89551 49.14L49.8761 65.0655C54.1519 61.8563 52.5193 56.897 55.8408 53.4152C55.7326 53.4231 41.9142 48.5134 14.5439 38.5163Z" fill="#008584" stroke="#404040" stroke-width="1.04601" stroke-linecap="round" stroke-linejoin="bevel"/>
<path d="M19.9759 40.3211C16.9154 44.3432 18.2881 48.4145 14.8535 51.2336" stroke="#404040" stroke-width="1.04601" stroke-linecap="round" stroke-linejoin="bevel"/>
<path fill-rule="evenodd" clip-rule="evenodd" d="M41.7518 41.2816L42.7091 41.8893L56.661 12.1718L56.777 8.51264" fill="#B6B6B6"/>
<path d="M41.7518 41.2816L42.7091 41.8893L56.661 12.1718L56.777 8.51264" stroke="#404040" stroke-width="1.02702" stroke-linecap="round" stroke-linejoin="round"/>
<path fill-rule="evenodd" clip-rule="evenodd" d="M58.9827 48.3514C59.205 48.9018 59.5754 49.8191 60.0939 51.1033L57.1035 55.9931L55.7158 53.539C57.2404 51.1181 58.3294 49.3889 58.9827 48.3514Z" fill="#B2B2B2" stroke="#404040" stroke-width="1.04601" stroke-linecap="round" stroke-linejoin="bevel"/>
<path fill-rule="evenodd" clip-rule="evenodd" d="M49.8916 64.9836L53.1148 65.6414C54.4139 63.1314 55.0361 60.5184 57.088 56.1467L55.9196 53.6556C52.0821 55.0668 54.5023 61.5991 49.8916 64.9836Z" fill="#005E5D" stroke="#404040" stroke-width="1.04601" stroke-linecap="round" stroke-linejoin="bevel"/>
<path d="M26.6497 43.054C23.5893 47.0762 24.9619 51.1474 21.5273 53.9665" stroke="#404040" stroke-width="1.04601" stroke-linecap="round" stroke-linejoin="bevel"/>
<path d="M33.8412 45.6255C30.7807 49.6663 32.1534 53.7565 28.7188 56.5888" stroke="#404040" stroke-width="1.04601" stroke-linecap="round" stroke-linejoin="bevel"/>
<path d="M41.5872 48.438C38.5268 52.5435 39.8994 56.6991 36.4648 59.5767" stroke="#404040" stroke-width="1.04601" stroke-linecap="round" stroke-linejoin="bevel"/>
<path d="M48.6576 51.3597C45.5971 55.3818 46.9698 59.4531 43.5352 62.2722" stroke="#404040" stroke-width="1.04601" stroke-linecap="round" stroke-linejoin="bevel"/>
</svg>
